# xmcd
# Track frame offsets:
# 150
# 15253
# 31356
# 47926
# 61463
# 79625
# 95247
# 109737
# 125119
# 142138
#
# Disc length: 2074 seconds
# Revision: 0
# Processed by: cddbd v1.4PL0 Copyright (c) Steve Scherf et al.
# Submitted via: VisiTrax 2.9.5.180 - For more info visit www.synapsa.com
#
DISCID=8c08180a
DTITLE=Dolly Parton - Heartbreak Express
DYEAR=1982
DGENRE=
TTITLE0=Heartbreak Express
TTITLE1=Single Women
TTITLE2=My Blue Ridge Mountain Boy
TTITLE3=As Much As Always
TTITLE4=Do I Ever Cross Your MInd
TTITLE5=Release Me
TTITLE6=Barbara On Your MInd
TTITLE7=Act Like A Fool
TTITLE8=Prime Of Our Love
TTITLE9=Hollywood Potters
EXTD=
EXTT0=
EXTT1=
EXTT2=
EXTT3=
EXTT4=
EXTT5=
EXTT6=
EXTT7=
EXTT8=
EXTT9=
PLAYORDER=
